# xmcd
#
# Track frame offsets: 
#        150
#        14404
#        27613
#        42944
#        53751
#        65452
#        80495
#        95586
#        109041
#        122537
#        146149
#        160962
#        177072
#        199115
#        212862
#
# Disc length: 3061 seconds
#
# Revision: 1
# Processed by: cddbd v1.5.2PL0 Copyright (c) Steve Scherf et al.
# Submitted via: ExactAudioCopy v1.3
#
DISCID=d30bf30f
DTITLE=Kenny Rogers - Love Songs - Irish Mail On Sunday
DYEAR=1900
DGENRE=Country
TTITLE0=Sunshine
TTITLE1=Ruby, Don't Take Your love To Town
TTITLE2=For The Good Times
TTITLE3=She Even Woke Me Up To Say Goodbye
TTITLE4=Girl Get A Hold Of Yourself
TTITLE5=Heed The Call
TTITLE6=Tell It All Brother
TTITLE7=But You Know That I love you
TTITLE8=A Stranger In My place
TTITLE9=All God's Lonely Children
TTITLE10=Jester - Heard It All Before
TTITLE11=Jester - Always Thinking Of You
TTITLE12=Jester - Hero
TTITLE13=Jester - Get ready For The Ride
TTITLE14=Jester - Comes Back To You
EXTD=
EXTT0=
EXTT1=
EXTT2=
EXTT3=
EXTT4=
EXTT5=
EXTT6=
EXTT7=
EXTT8=
EXTT9=
EXTT10=
EXTT11=
EXTT12=
EXTT13=
EXTT14=
PLAYORDER=
